HIERARCHY
ROOT root
{
	OFFSET	0	13.1	24.9
	CHANNELS 6  Xposition Yposition Zposition Xrotation Yrotation Zrotation
	JOINT spine_1
	{
		OFFSET	0	9.99999	0
		CHANNELS 3  Xrotation Yrotation Zrotation
		JOINT spine_2
		{
			OFFSET	0	112	-10
			CHANNELS 3  Xrotation Yrotation Zrotation
			JOINT spine_3
			{
				OFFSET	0	206.5	19.3
				CHANNELS 3  Xrotation Yrotation Zrotation
				JOINT spine_4
				{
					OFFSET	0	110.4	14.6
					CHANNELS 3  Xrotation Yrotation Zrotation
					JOINT neck_1
					{
						OFFSET	0	71.8	-50.3
						CHANNELS 3  Xrotation Yrotation Zrotation
						JOINT neck_2
						{
							OFFSET	0	86.2	-25.8
							CHANNELS 3  Xrotation Yrotation Zrotation
							JOINT head_ee
							{
								OFFSET	0	179.8	-8.7
								CHANNELS 3  Xrotation Yrotation Zrotation
								End Site
								{
									OFFSET	1	0	0
								}
							}
						}
					}
					JOINT left_clavicle
					{
						OFFSET	-43.2	22.4	-70.8
						CHANNELS 3  Xrotation Yrotation Zrotation
						JOINT left_shoulder
						{
							OFFSET	-93.9	-5.79999	48.7
							CHANNELS 3  Xrotation Yrotation Zrotation
							JOINT left_elbow
							{
								OFFSET	-291.4	-30.8	15.2
								CHANNELS 3  Xrotation Yrotation Zrotation
								JOINT left_lowarm_twist
								{
									OFFSET	-110.7	-3.89999	13.6
									CHANNELS 3  Xrotation Yrotation Zrotation
									JOINT left_hand
									{
										OFFSET	-110.7	-3.89999	13.6
										CHANNELS 3  Xrotation Yrotation Zrotation
										JOINT left_ee
										{
											OFFSET	-80.8	-5.10001	12.1
											CHANNELS 3  Xrotation Yrotation Zrotation
											End Site
											{
												OFFSET	1	0	0
											}
										}
									}
								}
							}
						}
					}
					JOINT right_clavicle
					{
						OFFSET	43.2	22.4	-70.8
						CHANNELS 3  Xrotation Yrotation Zrotation
						JOINT right_shoulder
						{
							OFFSET	93.9	-5.79999	48.7
							CHANNELS 3  Xrotation Yrotation Zrotation
							JOINT right_elbow
							{
								OFFSET	291.4	-30.8	15.2
								CHANNELS 3  Xrotation Yrotation Zrotation
								JOINT right_lowarm_twist
								{
									OFFSET	110.7	-3.89999	13.6
									CHANNELS 3  Xrotation Yrotation Zrotation
									JOINT right_hand
									{
										OFFSET	110.7	-3.89999	13.6
										CHANNELS 3  Xrotation Yrotation Zrotation
										JOINT right_ee
										{
											OFFSET	80.8	-5.10001	12.1
											CHANNELS 3  Xrotation Yrotation Zrotation
											End Site
											{
												OFFSET	1	0	0
											}
										}
									}
								}
							}
						}
					}
				}
			}
		}
	}
	JOINT left_hip
	{
		OFFSET	-82.8	-127.5	0.300001
		CHANNELS 3  Xrotation Yrotation Zrotation
		JOINT left_knee
		{
			OFFSET	-28.2	-396.7	2.2
			CHANNELS 3  Xrotation Yrotation Zrotation
			JOINT left_ankle
			{
				OFFSET	-11.7	-411.3	35.4
				CHANNELS 3  Xrotation Yrotation Zrotation
				JOINT left_toes
				{
					OFFSET	0	-60	-88.6
					CHANNELS 3  Xrotation Yrotation Zrotation
					JOINT left_foot_ee
					{
						OFFSET	-22.5	-16.5	-42.2
						CHANNELS 3  Xrotation Yrotation Zrotation
						End Site
						{
							OFFSET	1	0	0
						}
					}
				}
			}
		}
	}
	JOINT right_hip
	{
		OFFSET	82.8	-127.5	0.300001
		CHANNELS 3  Xrotation Yrotation Zrotation
		JOINT right_knee
		{
			OFFSET	28.2	-396.7	2.2
			CHANNELS 3  Xrotation Yrotation Zrotation
			JOINT right_ankle
			{
				OFFSET	11.7	-411.3	35.4
				CHANNELS 3  Xrotation Yrotation Zrotation
				JOINT right_toes
				{
					OFFSET	0	-60	-88.6
					CHANNELS 3  Xrotation Yrotation Zrotation
					JOINT right_foot_ee
					{
						OFFSET	22.5	-16.5	-42.2
						CHANNELS 3  Xrotation Yrotation Zrotation
						End Site
						{
							OFFSET	1	0	0
						}
					}
				}
			}
		}
	}
}
MOTION
Frames: 14
Frame Time: 0.02
1206.39438118 730.028 -1773.63484707 -1.9149426747 21.7842634525 2.67546086676 0.857901 0.0453804 -0.702372 0.85817 0.089981 -0.698061 0.85711 0.224747 -0.666991 0.856509 0.11659 -0.694113 0.886079 15.8963 -0.806826 1.63696 28.8848 0.461792 -0.0 0.0 -0.0 -1.50953 22.7302 0.536729 -14.4942 -37.727 68.3266 0.661081 -18.1327 0.105491 -20.7813 -1.17552 2.36846 0.185616 -3.80201 -0.360138 -0.0 0.0 -0.0 11.8079 23.7222 -23.1814 -5.29755 24.5398 -58.9178 0.855606 22.9691 -0.173838 7.178 -0.197043 0.895135 -0.027858 -20.4328 -8.06977 0.0 0.0 0.0 11.9858 -6.66714 -0.981463 -52.2772 -1.42623 7.62176 39.5381 14.398 -4.8823 23.6254 -0.0 -0.0 -0.0 0.0 -0.0 20.4883 8.62532 -11.1422 -26.6327 -0.158242 -4.04735 21.3224 -0.616874 2.91127 -10.2796 0.0 0.0 0.0 0.0 0.0 
1184.26130555 732.393 -1790.50919175 -0.807324956027 20.3467596386 2.53937233684 0.800324 0.272024 -0.67696 0.800524 0.314549 -0.658279 0.796874 0.437824 -0.583597 0.79656 0.340163 -0.645416 0.309183 16.2917 -0.61581 1.03807 29.5483 0.830961 -0.0 0.0 -0.0 -1.83561 23.3501 0.184386 -17.0581 -36.476 69.6003 0.589002 -16.266 0.0841745 -19.9161 -1.10984 2.27921 0.518165 -4.29614 1.67031 -0.0 0.0 -0.0 12.1143 23.5392 -23.9005 -3.36472 25.3281 -58.4686 1.01844 26.7706 -0.242357 6.37023 -0.180493 0.793277 -0.276796 -19.1065 -6.06233 0.0 0.0 0.0 21.2518 -10.5137 -6.20509 -52.5083 -1.44757 7.65026 37.5128 16.2985 -4.72241 22.183 -0.0 -0.0 -0.0 0.0 -0.0 18.1404 8.43703 -11.137 -27.4104 -0.13451 -4.16434 23.7184 -3.44268 3.18618 -10.024 0.0 0.0 0.0 0.0 0.0 
1184.15975914 732.393 -1790.44868776 -0.807421440488 20.3652130513 2.53964970905 0.800324 0.272024 -0.67696 0.800524 0.314549 -0.658279 0.796874 0.437824 -0.583597 0.79656 0.340163 -0.645416 0.309183 16.2917 -0.61581 1.03807 29.5483 0.830961 -0.0 0.0 -0.0 -1.83561 23.3501 0.184386 -17.0581 -36.476 69.6003 0.589002 -16.266 0.0841745 -19.9161 -1.10984 2.27921 0.518165 -4.29614 1.67031 -0.0 0.0 -0.0 12.1143 23.5392 -23.9005 -3.36472 25.3281 -58.4686 1.01844 26.7706 -0.242357 6.37023 -0.180493 0.793277 -0.276796 -19.1065 -6.06233 0.0 0.0 0.0 21.2518 -10.5137 -6.20509 -52.5083 -1.44757 7.65026 37.5128 16.2985 -4.72241 22.183 -0.0 -0.0 -0.0 0.0 -0.0 18.1404 8.43703 -11.137 -27.4104 -0.13451 -4.16434 23.7184 -3.44268 3.18618 -10.024 0.0 0.0 0.0 0.0 0.0 
1165.83473219 729.554 -1792.9945588 -2.72540715184 22.9823543796 4.47859845324 1.22316 0.0655913 -0.812149 1.22352 0.117136 -0.80633 1.22189 0.267661 -0.769578 1.22109 0.142765 -0.802189 0.516421 16.6049 -1.15331 1.33483 30.5043 0.208156 -0.0 0.0 -0.0 -2.19837 23.4853 -0.290513 -19.0337 -36.7219 69.3835 0.544539 -15.0963 0.0721563 -18.1953 -0.983278 2.09882 0.756939 -3.22764 3.72656 -0.0 0.0 -0.0 12.31 23.4985 -24.3538 -1.43804 26.0484 -57.5782 1.16256 29.9366 -0.310829 7.86975 -0.210073 0.982537 -0.131106 -16.2681 -5.8279 0.0 0.0 0.0 24.426 -11.2033 -8.35531 -53.1675 -1.50908 7.73107 37.3932 15.6724 -4.70133 22.6695 -0.0 -0.0 -0.0 0.0 -0.0 19.0861 7.87231 -11.5212 -26.5942 -0.159375 -4.04155 25.072 -1.40658 3.353 -9.46125 0.0 0.0 0.0 0.0 0.0 
1149.69523387 731.218 -1803.63947823 -4.45868726442 23.5746615787 5.89066544599 1.74402 0.035331 -0.962687 1.74453 0.0965149 -0.958488 1.74289 0.267817 -0.925362 1.74172 0.11832 -0.956042 0.716613 17.3815 -1.78245 1.69454 32.3641 -0.499521 -0.0 0.0 -0.0 -2.547 23.8425 -0.702685 -21.1557 -35.4607 69.9652 0.493348 -13.7335 0.0594117 -17.0492 -0.902021 1.97662 0.959753 -2.31306 5.47362 -0.0 0.0 -0.0 12.7123 22.6667 -25.36 0.354529 25.7875 -56.8985 1.27533 32.2816 -0.369103 8.20665 -0.216037 1.02516 -0.0964356 -13.9911 -5.13752 0.0 0.0 0.0 27.7165 -13.1874 -7.74896 -54.3607 -1.62279 7.87558 38.5141 15.2492 -4.80064 23.9588 -0.0 -0.0 -0.0 0.0 -0.0 18.9527 7.57089 -12.4851 -25.2299 -0.197024 -3.83556 26.226 -2.02147 3.48223 -9.31074 0.0 0.0 0.0 0.0 0.0 
1109.54210748 731.764 -1825.71490334 -3.89975406332 23.840103288 6.74492178341 2.01287 0.0550867 -0.965378 2.01338 0.116402 -0.959917 2.01137 0.283309 -0.924517 2.0102 0.13375 -0.957654 -0.15729 17.4404 -1.73376 0.727689 32.6002 -0.20246 -0.0 0.0 -0.0 -3.30883 24.3633 -1.63324 -25.4259 -35.7691 70.2877 0.434742 -12.1537 0.0462832 -15.8254 -0.817986 1.84439 1.32157 -2.05741 8.02494 -0.0 0.0 -0.0 12.9477 21.0206 -26.0469 2.65936 27.0552 -57.0736 1.55781 37.6544 -0.531177 9.10205 -0.230667 1.1386 0.0801654 -8.98886 -4.24931 0.0 0.0 0.0 34.0079 -13.9093 -10.9514 -53.3807 -1.52918 7.75707 38.7285 14.917 -4.81566 23.7748 -0.0 -0.0 -0.0 0.0 -0.0 15.5774 6.82001 -12.9606 -25.9638 -0.177383 -3.94647 29.5559 -1.7634 3.8518 -7.30286 0.0 0.0 0.0 0.0 0.0 
1064.46418875 724.884 -1852.21301123 -3.58904481947 25.4500777904 7.08291957272 2.17303 0.0748355 -1.04751 2.17363 0.141336 -1.04062 2.17097 0.319263 -1.00048 2.1696 0.157258 -1.03834 0.764098 17.0283 -3.16745 1.83835 32.8453 -2.08102 -0.0 0.0 -0.0 -3.63892 24.1014 -2.13636 -29.0827 -34.8128 70.9169 0.433826 -12.1289 0.0460906 -15.5097 -0.796771 1.81 1.30621 -1.75268 8.04581 -0.0 0.0 -0.0 12.8903 19.1549 -26.0478 5.75957 27.7533 -57.1143 1.62931 38.9044 -0.575472 8.32884 -0.218138 1.04063 0.488899 -5.13169 -5.36225 0.0 0.0 0.0 37.22 -18.1441 -11.9149 -51.4791 -1.35342 7.5227 40.6313 17.0014 -5.02295 23.963 -0.0 -0.0 -0.0 0.0 -0.0 11.8705 7.70427 -12.6943 -26.0507 -0.174962 -3.95959 31.6631 -1.4727 4.07562 -6.38304 0.0 0.0 0.0 0.0 0.0 
1056.87196554 724.884 -1845.88908206 -3.62479810545 26.6113666376 7.16438521954 2.17303 0.0748355 -1.04751 2.17363 0.141336 -1.04062 2.17097 0.319263 -1.00048 2.1696 0.157258 -1.03834 0.764098 17.0283 -3.16745 1.83835 32.8453 -2.08102 -0.0 0.0 -0.0 -3.63892 24.1014 -2.13636 -29.0827 -34.8128 70.9169 0.433826 -12.1289 0.0460906 -15.5097 -0.796771 1.81 1.30621 -1.75268 8.04581 -0.0 0.0 -0.0 12.8903 19.1549 -26.0478 5.75957 27.7533 -57.1143 1.62931 38.9044 -0.575472 8.32884 -0.218138 1.04063 0.488899 -5.13169 -5.36225 0.0 0.0 0.0 37.22 -18.1441 -11.9149 -51.4791 -1.35342 7.5227 40.6313 17.0014 -5.02295 23.963 -0.0 -0.0 -0.0 0.0 -0.0 11.8705 7.70427 -12.6943 -26.0507 -0.174962 -3.95959 31.6631 -1.4727 4.07562 -6.38304 0.0 0.0 0.0 0.0 0.0 
1053.27479789 724.884 -1842.80010327 -3.64274360106 27.1685946038 7.20406270333 2.17303 0.0748355 -1.04751 2.17363 0.141336 -1.04062 2.17097 0.319263 -1.00048 2.1696 0.157258 -1.03834 0.764098 17.0283 -3.16745 1.83835 32.8453 -2.08102 -0.0 0.0 -0.0 -3.63892 24.1014 -2.13636 -29.0827 -34.8128 70.9169 0.433826 -12.1289 0.0460906 -15.5097 -0.796771 1.81 1.30621 -1.75268 8.04581 -0.0 0.0 -0.0 12.8903 19.1549 -26.0478 5.75957 27.7533 -57.1143 1.62931 38.9044 -0.575472 8.32884 -0.218138 1.04063 0.488899 -5.13169 -5.36225 0.0 0.0 0.0 37.22 -18.1441 -11.9149 -51.4791 -1.35342 7.5227 40.6313 17.0014 -5.02295 23.963 -0.0 -0.0 -0.0 0.0 -0.0 11.8705 7.70427 -12.6943 -26.0507 -0.174962 -3.95959 31.6631 -1.4727 4.07562 -6.38304 0.0 0.0 0.0 0.0 0.0 
1048.53924086 724.884 -1838.63924897 -3.66742017242 27.9094208662 7.2574333672 2.17303 0.0748355 -1.04751 2.17363 0.141336 -1.04062 2.17097 0.319263 -1.00048 2.1696 0.157258 -1.03834 0.764098 17.0283 -3.16745 1.83835 32.8453 -2.08102 -0.0 0.0 -0.0 -3.63892 24.1014 -2.13636 -29.0827 -34.8128 70.9169 0.433826 -12.1289 0.0460906 -15.5097 -0.796771 1.81 1.30621 -1.75268 8.04581 -0.0 0.0 -0.0 12.8903 19.1549 -26.0478 5.75957 27.7533 -57.1143 1.62931 38.9044 -0.575472 8.32884 -0.218138 1.04063 0.488899 -5.13169 -5.36225 0.0 0.0 0.0 37.22 -18.1441 -11.9149 -51.4791 -1.35342 7.5227 40.6313 17.0014 -5.02295 23.963 -0.0 -0.0 -0.0 0.0 -0.0 11.8705 7.70427 -12.6943 -26.0507 -0.174962 -3.95959 31.6631 -1.4727 4.07562 -6.38304 0.0 0.0 0.0 0.0 0.0 
1032.96071279 719.065 -1845.99947421 -3.83034922965 28.8536745677 7.82847396681 2.2795 0.101252 -1.15761 2.28022 0.174704 -1.14883 2.27658 0.368832 -1.10195 2.27493 0.190182 -1.14637 -1.2267 17.51 -2.02073 -0.436303 33.1512 -0.205221 -0.0 0.0 -0.0 -3.86014 24.6683 -2.30989 -29.6111 -35.2926 70.9717 0.390254 -10.9417 0.0373768 -15.2236 -0.777711 1.77873 1.62185 -2.71082 9.79798 -0.0 0.0 -0.0 13.1092 18.7506 -26.5832 5.07179 27.4523 -56.0454 1.90156 43.2841 -0.754554 9.68904 -0.239295 1.21308 0.288016 -3.70594 -3.45632 0.0 0.0 0.0 38.4573 -16.0186 -13.3535 -50.7956 -1.29216 7.43706 39.1997 14.3324 -4.85067 24.1243 -0.0 -0.0 -0.0 0.0 -0.0 10.8163 7.41826 -12.7497 -26.5366 -0.161064 -4.03287 34.0592 -1.45627 4.31783 -5.24806 0.0 0.0 0.0 0.0 0.0 
1008.43046551 711.688 -1860.57901694 -4.59033883914 29.8907559229 8.60708412853 2.82941 0.0312619 -1.35624 2.83042 0.117492 -1.3515 2.82734 0.334547 -1.31471 2.82495 0.122735 -1.35104 -0.824427 15.5749 -2.90568 -0.0992196 30.2893 -1.44873 -0.0 0.0 -0.0 -4.11214 25.0645 -2.55653 -31.111 -33.9768 71.506 0.406126 -11.3753 0.0404484 -14.6436 -0.739548 1.71505 1.43135 -1.85156 8.85412 -0.0 0.0 -0.0 12.8422 18.0525 -26.0024 6.90727 27.7769 -56.6937 1.75039 40.9247 -0.653176 9.48115 -0.236326 1.18669 0.351546 -2.87282 -3.53524 0.0 0.0 0.0 40.1519 -15.5817 -11.5231 -46.6725 -0.944871 6.90584 42.3796 21.1581 -5.27258 25.5144 -0.0 -0.0 -0.0 0.0 -0.0 8.50231 10.8666 -13.2501 -21.5253 -0.274395 -3.27243 36.1177 -0.570185 4.52188 -5.11966 0.0 0.0 0.0 0.0 0.0 
1003.84241966 711.688 -1856.19757884 -4.62244838045 30.5745897786 8.67085405141 2.82941 0.0312619 -1.35624 2.83042 0.117492 -1.3515 2.82734 0.334547 -1.31471 2.82495 0.122735 -1.35104 -0.824427 15.5749 -2.90568 -0.0992196 30.2893 -1.44873 -0.0 0.0 -0.0 -4.11214 25.0645 -2.55653 -31.111 -33.9768 71.506 0.406126 -11.3753 0.0404484 -14.6436 -0.739548 1.71505 1.43135 -1.85156 8.85412 -0.0 0.0 -0.0 12.8422 18.0525 -26.0024 6.90727 27.7769 -56.6937 1.75039 40.9247 -0.653176 9.48115 -0.236326 1.18669 0.351546 -2.87282 -3.53524 0.0 0.0 0.0 40.1519 -15.5817 -11.5231 -46.6725 -0.944871 6.90584 42.3796 21.1581 -5.27258 25.5144 -0.0 -0.0 -0.0 0.0 -0.0 8.50231 10.8666 -13.2501 -21.5253 -0.274395 -3.27243 36.1177 -0.570185 4.52188 -5.11966 0.0 0.0 0.0 0.0 0.0 
996.748728355 711.688 -1849.21156849 -4.67511261364 31.6477188945 8.77277375717 2.82941 0.0312619 -1.35624 2.83042 0.117492 -1.3515 2.82734 0.334547 -1.31471 2.82495 0.122735 -1.35104 -0.824427 15.5749 -2.90568 -0.0992196 30.2893 -1.44873 -0.0 0.0 -0.0 -4.11214 25.0645 -2.55653 -31.111 -33.9768 71.506 0.406126 -11.3753 0.0404484 -14.6436 -0.739548 1.71505 1.43135 -1.85156 8.85412 -0.0 0.0 -0.0 12.8422 18.0525 -26.0024 6.90727 27.7769 -56.6937 1.75039 40.9247 -0.653176 9.48115 -0.236326 1.18669 0.351546 -2.87282 -3.53524 0.0 0.0 0.0 40.1519 -15.5817 -11.5231 -46.6725 -0.944871 6.90584 42.3796 21.1581 -5.27258 25.5144 -0.0 -0.0 -0.0 0.0 -0.0 8.50231 10.8666 -13.2501 -21.5253 -0.274395 -3.27243 36.1177 -0.570185 4.52188 -5.11966 0.0 0.0 0.0 0.0 0.0 
